HIERARCHY
ROOT Hips
{
	OFFSET 0.00000 0.00000 0.00000
	CHANNELS 6 Xposition Yposition Zposition Zrotation Yrotation Xrotation 
	JOINT LHipJoint
	{
		OFFSET 0 0 0
		CHANNELS 3 Zrotation Yrotation Xrotation
		JOINT LeftHip
		{
			OFFSET 1.42489 -1.84941 0.69647
			CHANNELS 3 Zrotation Yrotation Xrotation
			JOINT LeftKnee
			{
				OFFSET 2.44443 -6.71602 0.00000
				CHANNELS 3 Zrotation Yrotation Xrotation
				JOINT LeftAnkle
				{
					OFFSET 2.62838 -7.22137 0.00000
					CHANNELS 3 Zrotation Yrotation Xrotation
					JOINT LeftToe
					{
						OFFSET 0.24036 -0.66037 2.29953
						CHANNELS 3 Zrotation Yrotation Xrotation
						End Site
						{
							OFFSET 0.00000 -0.00000 1.19837
						}
					}
				}
			}
		}
	}
	JOINT RHipJoint
	{
		OFFSET 0 0 0
		CHANNELS 3 Zrotation Yrotation Xrotation
		JOINT RightHip
		{
			OFFSET -1.37055 -1.84941 0.69647
			CHANNELS 3 Zrotation Yrotation Xrotation
			JOINT RightKnee
			{
				OFFSET -2.54834 -7.00152 0.00000
				CHANNELS 3 Zrotation Yrotation Xrotation
				JOINT RightAnkle
				{
					OFFSET -2.65692 -7.29983 0.00000
					CHANNELS 3 Zrotation Yrotation Xrotation
					JOINT RightToe
					{
						OFFSET -0.18839 -0.51760 2.29390
						CHANNELS 3 Zrotation Yrotation Xrotation
						End Site
						{
							OFFSET -0.00000 -0.00000 1.18261
						}
					}
				}
			}
		}
	}
	JOINT lowerback
	{
		OFFSET 0 0 0
		CHANNELS 3 Zrotation Yrotation Xrotation
		JOINT Chest
		{
			OFFSET 0.05220 2.15489 0.05011
			CHANNELS 3 Zrotation Yrotation Xrotation
			JOINT Chest2
			{
				OFFSET -0.07653 2.14219 -0.05668
				CHANNELS 3 Zrotation Yrotation Xrotation
				JOINT lowerneck
				{
					OFFSET 0 0 0
					CHANNELS 3 Zrotation Yrotation Xrotation
					JOINT Neck
					{
						OFFSET 0.01370 1.58638 0.01447
						CHANNELS 3 Zrotation Yrotation Xrotation
						JOINT Head
						{
							OFFSET 0.23548 1.54190 -0.21747
							CHANNELS 3 Zrotation Yrotation Xrotation
							End Site
							{
								OFFSET 0.07132 1.59823 -0.08163
							}
						}
					}
				}
				JOINT LeftCollar
				{
					OFFSET 0 0 0
					CHANNELS 3 Zrotation Yrotation Xrotation
					JOINT LeftShoulder
					{
						OFFSET 3.47056 1.45357 -0.58896
CHANNELS 3 Zrotation Xrotation Yrotation
						JOINT LeftElbow
						{
OFFSET 0 -5.190690 0.000000
CHANNELS 3 Zrotation Xrotation Yrotation
							JOINT LeftWrist
							{
OFFSET 0 -3.300160 0.000000
CHANNELS 3 Zrotation Xrotation Yrotation
								JOINT lhand
								{
									OFFSET 0 0 0
CHANNELS 3 Zrotation Xrotation Yrotation
									JOINT LFingers
									{
OFFSET 0 -0.707700 0.000000
CHANNELS 3 Zrotation Xrotation Yrotation
										End Site
										{
OFFSET 0 -0.570560 0.000000
										}
									}
								}
								JOINT LThumb
								{
OFFSET 0 0.000000 0.000000
CHANNELS 3 Zrotation Xrotation Yrotation
									End Site
									{
OFFSET 0 -0.579280 0.579280
									}
								}
							}
						}
					}
				}
				JOINT RightCollar
				{
					OFFSET 0 0 0
					CHANNELS 3 Zrotation Yrotation Xrotation
					JOINT RightShoulder
					{
						OFFSET -2.89018 2.03305 -0.26731
CHANNELS 3 Zrotation Xrotation Yrotation
						JOINT RightElbow
						{
OFFSET 0 -5.239240 0.000000
CHANNELS 3 Zrotation Xrotation Yrotation
							JOINT RightWrist
							{
OFFSET 0 -3.329530 0.000000
CHANNELS 3 Zrotation Xrotation Yrotation
								JOINT rhand
								{
									OFFSET 0 0 0
CHANNELS 3 Zrotation Xrotation Yrotation
									JOINT RFingers
									{
OFFSET 0 -0.607410 0.000000
CHANNELS 3 Zrotation Xrotation Yrotation
										End Site
										{
OFFSET 0 -0.489710 0.000000
										}
									}
								}
								JOINT RThumb
								{
OFFSET 0 0.000000 0.000000
CHANNELS 3 Zrotation Xrotation Yrotation
									End Site
									{
OFFSET 0 -0.497190 0.497190
									}
								}
							}
						}
					}
				}
			}
		}
	}
}
MOTION
Frames: 5
Frame Time: 0.008333333333333333
27.985400 16.794600 -30.405000 -4.432400 -42.035100 18.606300 0.000000 0.000000 0.000000 -17.890300 -2.323200 -47.317900 6.711100 15.083800 47.773200 1.226400 0.723600 -21.207700 0.044300 -1.358000 -3.734500 0.000000 0.000000 0.000000 16.019200 19.285800 -42.804700 -7.214600 -15.510000 49.681500 -1.401300 0.269000 -22.309300 -0.031100 1.137500 -3.127300 4.087800 -2.833800 16.665000 -3.332700 -3.600400 12.947200 -5.392800 -1.553400 4.154200 -2.201600 -2.202100 -6.540300 12.714400 -2.449600 -8.117200 4.599900 -1.405900 -1.261100 0.000000 0.000000 0.000000 17.622500 -31.773300 -48.839900 56.187400 -55.205300 31.188800 36.940800 -48.398300 -13.138300 0.000000 0.000000 0.000000 -7.125000 0.000000 0.000000 9.108300 46.057200 -0.239600 0.000000 0.000000 0.000000 -6.935500 2.662500 45.736100 -47.522000 -51.945800 -24.208800 -24.422100 5.413800 7.339600 0.000000 0.000000 0.000000 7.125000 0.000000 -0.000000 2.042300 38.024400 0.350900
27.995326 16.801048 -30.399626 -4.173958 -41.421787 18.238222 0.000000 0.000000 0.000000 -18.005130 -2.729741 -46.894078 6.645558 15.025958 47.520562 1.211901 0.580838 -21.029385 0.042156 -1.324872 -3.643013 0.000000 0.000000 0.000000 15.966358 18.752743 -42.653290 -7.207792 -15.504448 49.655950 -1.413161 0.207549 -22.424158 -0.027487 1.070236 -2.942110 4.296454 -3.063964 16.900992 -3.249833 -3.865446 13.020746 -5.375377 -1.676048 4.077780 -2.236541 -2.250151 -6.597634 12.596253 -2.524159 -8.031891 4.558915 -1.434699 -1.217359 0.000000 0.000000 0.000000 17.418973 -31.898785 -48.999987 56.271215 -55.231550 31.257742 37.294542 -48.763857 -12.577773 0.000000 0.000000 0.000000 -7.125000 0.000000 0.000000 9.427458 45.433321 -0.101770 0.000000 0.000000 0.000000 -7.043132 2.784020 45.738717 -47.600692 -51.980805 -24.270739 -24.518088 5.431503 7.214080 0.000000 0.000000 0.000000 7.125000 0.000000 0.000000 1.950191 37.893605 0.341411
27.997982 16.804965 -30.406474 -4.232905 -41.493371 18.312860 0.000000 0.000000 0.000000 -18.013175 -2.568777 -46.961460 6.618771 15.002275 47.417415 1.201431 0.533586 -20.921657 0.041131 -1.309415 -3.600522 0.000000 0.000000 0.000000 15.965068 18.950051 -42.634267 -7.189593 -15.489532 49.587853 -1.402705 0.100988 -22.375854 -0.027231 1.065111 -2.928080 4.304504 -2.996759 16.903929 -3.237941 -3.779151 13.037408 -5.380736 -1.632093 4.106265 -2.204182 -2.286789 -6.630187 12.585818 -2.577445 -8.020804 4.546678 -1.460864 -1.204017 0.000000 0.000000 0.000000 17.452907 -32.047056 -49.176975 56.471496 -55.293953 31.422242 37.352591 -48.564929 -13.059692 0.000000 0.000000 0.000000 -7.125000 0.000000 0.000000 9.505010 46.027232 -0.243109 0.000000 0.000000 0.000000 -7.022424 2.919877 45.762731 -47.645350 -52.000542 -24.305946 -24.719516 5.405870 7.018185 0.000000 0.000000 0.000000 7.125000 0.000000 0.000000 1.763130 37.692450 0.317302
28.002226 16.808860 -30.410795 -4.224999 -41.504618 18.333466 0.000000 0.000000 0.000000 -18.054250 -2.515253 -46.984367 6.597081 14.982976 47.333446 1.195244 0.503989 -20.857671 0.039509 -1.283094 -3.527933 0.000000 0.000000 0.000000 15.919877 19.058721 -42.619085 -7.170623 -15.473893 49.516728 -1.395474 0.030172 -22.340850 -0.025570 1.031848 -2.836481 4.307064 -2.958903 16.918728 -3.218487 -3.730356 13.050990 -5.368495 -1.607806 4.121064 -2.219493 -2.309081 -6.622355 12.586715 -2.603999 -8.048364 4.550146 -1.474969 -1.211967 0.000000 0.000000 0.000000 17.439222 -32.177046 -49.340575 56.662945 -55.353058 31.579714 37.604476 -48.797153 -12.735153 0.000000 0.000000 0.000000 -7.125000 0.000000 0.000000 9.733957 45.672736 -0.163124 0.000000 0.000000 0.000000 -7.043368 3.046475 45.821466 -47.662277 -52.007993 -24.319268 -24.924631 5.485548 6.936849 0.000000 0.000000 0.000000 7.125000 0.000000 0.000000 1.582197 37.616770 0.287599
28.008008 16.813399 -30.412935 -4.167292 -41.472840 18.291853 0.000000 0.000000 0.000000 -18.122255 -2.558936 -46.926431 6.568561 14.957539 47.223122 1.187988 0.550551 -20.811810 0.038313 -1.263803 -3.474973 0.000000 0.000000 0.000000 15.842591 19.108212 -42.583377 -7.155619 -15.461528 49.460355 -1.391861 -0.026192 -22.330869 -0.023478 0.989635 -2.720300 4.339832 -2.954343 16.951036 -3.223223 -3.720274 13.072022 -5.393243 -1.599881 4.127769 -2.241558 -2.316044 -6.590666 12.613138 -2.605428 -8.108255 4.566015 -1.478844 -1.236587 0.000000 0.000000 0.000000 17.452390 -32.268755 -49.478887 56.911477 -55.429114 31.784288 37.795717 -49.012129 -12.399065 0.000000 0.000000 0.000000 -7.125000 0.000000 0.000000 9.900419 45.292712 -0.072212 0.000000 0.000000 0.000000 -7.056352 3.147359 45.904561 -47.607863 -51.983903 -24.276425 -25.107049 5.614796 6.878279 0.000000 0.000000 0.000000 7.125000 0.000000 0.000000 1.422448 37.564339 0.260408
